<svg id="visual" viewBox="0 0 960 540" width="960" height="540" xmlns="http://www.w3.org/2000/svg" xmlns:xlink="http://www.w3.org/1999/xlink" version="1.1"><g stroke-width="1" stroke-linejoin="bevel"><path d="M517 298L460 314L505 361Z" fill="#110d0d" stroke="#110d0d"></path><path d="M460 314L438 354L505 361Z" fill="#161111" stroke="#161111"></path><path d="M462 418L510 402L505 361Z" fill="#110d0d" stroke="#110d0d"></path><path d="M591 356L592 301L517 298Z" fill="#161111" stroke="#161111"></path><path d="M438 354L462 418L505 361Z" fill="#080606" stroke="#080606"></path><path d="M591 356L517 298L505 361Z" fill="#100c0c" stroke="#100c0c"></path><path d="M563 417L591 356L505 361Z" fill="#161111" stroke="#161111"></path><path d="M573 238L506 225L517 298Z" fill="#140f0f" stroke="#140f0f"></path><path d="M517 298L455 222L460 314Z" fill="#151010" stroke="#151010"></path><path d="M374 301L402 375L438 354Z" fill="#0d0a0a" stroke="#0d0a0a"></path><path d="M374 301L438 354L460 314Z" fill="#0f0b0b" stroke="#0f0b0b"></path><path d="M438 354L402 375L462 418Z" fill="#0a0707" stroke="#0a0707"></path><path d="M506 225L455 222L517 298Z" fill="#080606" stroke="#080606"></path><path d="M562 468L563 417L510 402Z" fill="#0c0808" stroke="#0c0808"></path><path d="M510 402L563 417L505 361Z" fill="#151010" stroke="#151010"></path><path d="M592 301L573 238L517 298Z" fill="#130e0e" stroke="#130e0e"></path><path d="M399 235L374 301L460 314Z" fill="#161111" stroke="#161111"></path><path d="M455 222L399 235L460 314Z" fill="#0c0808" stroke="#0c0808"></path><path d="M323 346L388 413L402 375Z" fill="#130e0e" stroke="#130e0e"></path><path d="M402 375L388 413L462 418Z" fill="#151010" stroke="#151010"></path><path d="M388 413L459 461L462 418Z" fill="#140f0f" stroke="#140f0f"></path><path d="M462 418L459 461L510 402Z" fill="#0a0707" stroke="#0a0707"></path><path d="M569 164L502 176L506 225Z" fill="#130e0e" stroke="#130e0e"></path><path d="M506 225L502 176L455 222Z" fill="#080606" stroke="#080606"></path><path d="M455 222L453 175L399 235Z" fill="#100c0c" stroke="#100c0c"></path><path d="M646 346L642 290L592 301Z" fill="#0f0b0b" stroke="#0f0b0b"></path><path d="M592 301L627 247L573 238Z" fill="#100c0c" stroke="#100c0c"></path><path d="M573 238L569 164L506 225Z" fill="#100c0c" stroke="#100c0c"></path><path d="M646 346L592 301L591 356Z" fill="#161111" stroke="#161111"></path><path d="M653 425L646 346L591 356Z" fill="#161111" stroke="#161111"></path><path d="M642 290L627 247L592 301Z" fill="#0c0808" stroke="#0c0808"></path><path d="M502 176L453 175L455 222Z" fill="#110d0d" stroke="#110d0d"></path><path d="M501 489L562 468L510 402Z" fill="#080606" stroke="#080606"></path><path d="M563 417L653 425L591 356Z" fill="#0c0808" stroke="#0c0808"></path><path d="M459 461L501 489L510 402Z" fill="#151010" stroke="#151010"></path><path d="M324 235L323 314L374 301Z" fill="#0f0b0b" stroke="#0f0b0b"></path><path d="M374 301L323 346L402 375Z" fill="#080606" stroke="#080606"></path><path d="M324 235L374 301L399 235Z" fill="#110d0d" stroke="#110d0d"></path><path d="M323 314L323 346L374 301Z" fill="#0a0707" stroke="#0a0707"></path><path d="M645 189L569 164L573 238Z" fill="#100c0c" stroke="#100c0c"></path><path d="M512 118L435 126L453 175Z" fill="#0a0707" stroke="#0a0707"></path><path d="M453 175L370 193L399 235Z" fill="#0d0a0a" stroke="#0d0a0a"></path><path d="M562 468L653 425L563 417Z" fill="#0d0a0a" stroke="#0d0a0a"></path><path d="M646 346L692 306L642 290Z" fill="#130e0e" stroke="#130e0e"></path><path d="M324 483L390 488L388 413Z" fill="#161111" stroke="#161111"></path><path d="M388 413L390 488L459 461Z" fill="#0c0808" stroke="#0c0808"></path><path d="M434 540L509 540L501 489Z" fill="#130e0e" stroke="#130e0e"></path><path d="M370 193L324 235L399 235Z" fill="#100c0c" stroke="#100c0c"></path><path d="M717 349L692 306L646 346Z" fill="#0d0a0a" stroke="#0d0a0a"></path><path d="M642 290L704 231L627 247Z" fill="#140f0f" stroke="#140f0f"></path><path d="M627 247L645 189L573 238Z" fill="#161111" stroke="#161111"></path><path d="M383 125L336 198L370 193Z" fill="#100c0c" stroke="#100c0c"></path><path d="M370 193L336 198L324 235Z" fill="#140f0f" stroke="#140f0f"></path><path d="M704 231L645 189L627 247Z" fill="#0c0808" stroke="#0c0808"></path><path d="M512 118L453 175L502 176Z" fill="#161111" stroke="#161111"></path><path d="M453 175L383 125L370 193Z" fill="#100c0c" stroke="#100c0c"></path><path d="M591 118L512 118L569 164Z" fill="#151010" stroke="#151010"></path><path d="M569 164L512 118L502 176Z" fill="#100c0c" stroke="#100c0c"></path><path d="M434 540L501 489L459 461Z" fill="#110d0d" stroke="#110d0d"></path><path d="M501 489L509 540L562 468Z" fill="#0c0808" stroke="#0c0808"></path><path d="M562 468L657 479L653 425Z" fill="#080606" stroke="#080606"></path><path d="M323 346L302 423L388 413Z" fill="#080606" stroke="#080606"></path><path d="M255 374L302 423L323 346Z" fill="#0c0808" stroke="#0c0808"></path><path d="M265 290L323 346L323 314Z" fill="#080606" stroke="#080606"></path><path d="M400 540L434 540L390 488Z" fill="#130e0e" stroke="#130e0e"></path><path d="M390 488L434 540L459 461Z" fill="#0c0808" stroke="#0c0808"></path><path d="M586 540L657 479L562 468Z" fill="#140f0f" stroke="#140f0f"></path><path d="M700 425L717 349L646 346Z" fill="#130e0e" stroke="#130e0e"></path><path d="M700 425L646 346L653 425Z" fill="#100c0c" stroke="#100c0c"></path><path d="M692 306L704 231L642 290Z" fill="#140f0f" stroke="#140f0f"></path><path d="M691 479L700 425L653 425Z" fill="#161111" stroke="#161111"></path><path d="M638 132L591 118L569 164Z" fill="#130e0e" stroke="#130e0e"></path><path d="M390 55L383 125L435 126Z" fill="#151010" stroke="#151010"></path><path d="M435 126L383 125L453 175Z" fill="#100c0c" stroke="#100c0c"></path><path d="M757 284L704 231L692 306Z" fill="#0d0a0a" stroke="#0d0a0a"></path><path d="M645 189L638 132L569 164Z" fill="#151010" stroke="#151010"></path><path d="M302 423L324 483L388 413Z" fill="#151010" stroke="#151010"></path><path d="M273 252L323 314L324 235Z" fill="#0d0a0a" stroke="#0d0a0a"></path><path d="M273 252L265 290L323 314Z" fill="#0c0808" stroke="#0c0808"></path><path d="M273 252L324 235L261 166Z" fill="#080606" stroke="#080606"></path><path d="M509 540L586 540L562 468Z" fill="#0f0b0b" stroke="#0f0b0b"></path><path d="M261 166L324 235L336 198Z" fill="#140f0f" stroke="#140f0f"></path><path d="M323 540L400 540L390 488Z" fill="#110d0d" stroke="#110d0d"></path><path d="M691 138L638 132L645 189Z" fill="#0c0808" stroke="#0c0808"></path><path d="M265 290L255 374L323 346Z" fill="#140f0f" stroke="#140f0f"></path><path d="M302 423L259 437L324 483Z" fill="#161111" stroke="#161111"></path><path d="M657 479L691 479L653 425Z" fill="#0d0a0a" stroke="#0d0a0a"></path><path d="M752 401L756 370L717 349Z" fill="#130e0e" stroke="#130e0e"></path><path d="M696 540L691 479L657 479Z" fill="#0c0808" stroke="#0c0808"></path><path d="M586 540L630 540L657 479Z" fill="#080606" stroke="#080606"></path><path d="M591 118L528 75L512 118Z" fill="#100c0c" stroke="#100c0c"></path><path d="M512 118L462 70L435 126Z" fill="#0a0707" stroke="#0a0707"></path><path d="M557 42L528 75L591 118Z" fill="#0f0b0b" stroke="#0f0b0b"></path><path d="M528 75L462 70L512 118Z" fill="#130e0e" stroke="#130e0e"></path><path d="M255 374L259 437L302 423Z" fill="#151010" stroke="#151010"></path><path d="M324 483L323 540L390 488Z" fill="#100c0c" stroke="#100c0c"></path><path d="M764 228L715 187L704 231Z" fill="#161111" stroke="#161111"></path><path d="M704 231L715 187L645 189Z" fill="#0a0707" stroke="#0a0707"></path><path d="M752 401L717 349L700 425Z" fill="#0d0a0a" stroke="#0d0a0a"></path><path d="M717 349L757 284L692 306Z" fill="#151010" stroke="#151010"></path><path d="M756 370L757 284L717 349Z" fill="#0d0a0a" stroke="#0d0a0a"></path><path d="M764 479L752 401L700 425Z" fill="#140f0f" stroke="#140f0f"></path><path d="M715 187L691 138L645 189Z" fill="#0a0707" stroke="#0a0707"></path><path d="M645 44L557 42L591 118Z" fill="#130e0e" stroke="#130e0e"></path><path d="M263 497L323 540L324 483Z" fill="#0d0a0a" stroke="#0d0a0a"></path><path d="M390 55L322 112L383 125Z" fill="#0c0808" stroke="#0c0808"></path><path d="M383 125L322 112L336 198Z" fill="#161111" stroke="#161111"></path><path d="M322 112L261 166L336 198Z" fill="#0c0808" stroke="#0c0808"></path><path d="M273 252L203 251L265 290Z" fill="#0f0b0b" stroke="#0f0b0b"></path><path d="M265 290L194 295L255 374Z" fill="#0c0808" stroke="#0c0808"></path><path d="M757 284L764 228L704 231Z" fill="#080606" stroke="#080606"></path><path d="M715 187L752 108L691 138Z" fill="#161111" stroke="#161111"></path><path d="M816 284L764 228L757 284Z" fill="#0f0b0b" stroke="#0f0b0b"></path><path d="M259 437L263 497L324 483Z" fill="#100c0c" stroke="#100c0c"></path><path d="M452 0L390 55L462 70Z" fill="#0f0b0b" stroke="#0f0b0b"></path><path d="M462 70L390 55L435 126Z" fill="#110d0d" stroke="#110d0d"></path><path d="M645 44L591 118L638 132Z" fill="#151010" stroke="#151010"></path><path d="M528 75L508 0L462 70Z" fill="#110d0d" stroke="#110d0d"></path><path d="M630 540L696 540L657 479Z" fill="#100c0c" stroke="#100c0c"></path><path d="M691 479L764 479L700 425Z" fill="#130e0e" stroke="#130e0e"></path><path d="M261 166L203 251L273 252Z" fill="#110d0d" stroke="#110d0d"></path><path d="M177 421L207 472L259 437Z" fill="#0c0808" stroke="#0c0808"></path><path d="M259 437L207 472L263 497Z" fill="#140f0f" stroke="#140f0f"></path><path d="M203 251L194 295L265 290Z" fill="#140f0f" stroke="#140f0f"></path><path d="M322 112L272 120L261 166Z" fill="#0f0b0b" stroke="#0f0b0b"></path><path d="M261 166L185 183L203 251Z" fill="#080606" stroke="#080606"></path><path d="M312 73L272 120L322 112Z" fill="#0a0707" stroke="#0a0707"></path><path d="M696 540L764 479L691 479Z" fill="#151010" stroke="#151010"></path><path d="M825 415L816 356L756 370Z" fill="#080606" stroke="#080606"></path><path d="M818 227L775 169L764 228Z" fill="#0f0b0b" stroke="#0f0b0b"></path><path d="M390 55L312 73L322 112Z" fill="#0a0707" stroke="#0a0707"></path><path d="M135 353L178 342L134 305Z" fill="#0c0808" stroke="#0c0808"></path><path d="M194 295L178 342L255 374Z" fill="#110d0d" stroke="#110d0d"></path><path d="M686 62L638 132L691 138Z" fill="#130e0e" stroke="#130e0e"></path><path d="M686 62L645 44L638 132Z" fill="#0d0a0a" stroke="#0d0a0a"></path><path d="M816 356L757 284L756 370Z" fill="#100c0c" stroke="#100c0c"></path><path d="M764 228L775 169L715 187Z" fill="#080606" stroke="#080606"></path><path d="M177 421L259 437L255 374Z" fill="#161111" stroke="#161111"></path><path d="M263 497L238 540L323 540Z" fill="#130e0e" stroke="#130e0e"></path><path d="M825 415L756 370L752 401Z" fill="#100c0c" stroke="#100c0c"></path><path d="M816 356L816 284L757 284Z" fill="#0a0707" stroke="#0a0707"></path><path d="M752 108L686 62L691 138Z" fill="#080606" stroke="#080606"></path><path d="M570 0L508 0L557 42Z" fill="#130e0e" stroke="#130e0e"></path><path d="M557 42L508 0L528 75Z" fill="#110d0d" stroke="#110d0d"></path><path d="M390 55L328 0L312 73Z" fill="#151010" stroke="#151010"></path><path d="M508 0L452 0L462 70Z" fill="#100c0c" stroke="#100c0c"></path><path d="M178 342L177 421L255 374Z" fill="#0d0a0a" stroke="#0d0a0a"></path><path d="M188 540L238 540L207 472Z" fill="#0c0808" stroke="#0c0808"></path><path d="M207 472L238 540L263 497Z" fill="#110d0d" stroke="#110d0d"></path><path d="M645 44L570 0L557 42Z" fill="#130e0e" stroke="#130e0e"></path><path d="M650 0L570 0L645 44Z" fill="#100c0c" stroke="#100c0c"></path><path d="M775 169L752 108L715 187Z" fill="#080606" stroke="#080606"></path><path d="M816 284L818 227L764 228Z" fill="#0c0808" stroke="#0c0808"></path><path d="M817 111L753 57L752 108Z" fill="#130e0e" stroke="#130e0e"></path><path d="M845 163L818 227L886 171Z" fill="#080606" stroke="#080606"></path><path d="M452 0L397 0L390 55Z" fill="#080606" stroke="#080606"></path><path d="M199 102L261 166L272 120Z" fill="#0d0a0a" stroke="#0d0a0a"></path><path d="M199 102L185 183L261 166Z" fill="#0f0b0b" stroke="#0f0b0b"></path><path d="M134 305L178 342L194 295Z" fill="#140f0f" stroke="#140f0f"></path><path d="M764 479L825 415L752 401Z" fill="#151010" stroke="#151010"></path><path d="M897 246L818 227L816 284Z" fill="#110d0d" stroke="#110d0d"></path><path d="M696 540L766 540L764 479Z" fill="#0f0b0b" stroke="#0f0b0b"></path><path d="M764 479L840 466L825 415Z" fill="#151010" stroke="#151010"></path><path d="M178 342L135 353L177 421Z" fill="#110d0d" stroke="#110d0d"></path><path d="M118 475L188 540L207 472Z" fill="#100c0c" stroke="#100c0c"></path><path d="M134 305L194 295L124 235Z" fill="#0d0a0a" stroke="#0d0a0a"></path><path d="M124 235L194 295L203 251Z" fill="#0f0b0b" stroke="#0f0b0b"></path><path d="M693 0L645 44L686 62Z" fill="#130e0e" stroke="#130e0e"></path><path d="M693 0L650 0L645 44Z" fill="#161111" stroke="#161111"></path><path d="M312 73L261 44L272 120Z" fill="#151010" stroke="#151010"></path><path d="M328 0L261 44L312 73Z" fill="#0a0707" stroke="#0a0707"></path><path d="M397 0L328 0L390 55Z" fill="#100c0c" stroke="#100c0c"></path><path d="M261 44L199 102L272 120Z" fill="#130e0e" stroke="#130e0e"></path><path d="M185 183L124 235L203 251Z" fill="#110d0d" stroke="#110d0d"></path><path d="M819 540L840 466L764 479Z" fill="#080606" stroke="#080606"></path><path d="M825 415L889 352L816 356Z" fill="#0a0707" stroke="#0a0707"></path><path d="M118 475L207 472L177 421Z" fill="#0c0808" stroke="#0c0808"></path><path d="M752 108L753 57L686 62Z" fill="#140f0f" stroke="#140f0f"></path><path d="M817 111L752 108L775 169Z" fill="#161111" stroke="#161111"></path><path d="M123 177L124 235L185 183Z" fill="#080606" stroke="#080606"></path><path d="M66 357L122 420L135 353Z" fill="#151010" stroke="#151010"></path><path d="M753 57L693 0L686 62Z" fill="#0c0808" stroke="#0c0808"></path><path d="M66 357L135 353L134 305Z" fill="#140f0f" stroke="#140f0f"></path><path d="M135 353L122 420L177 421Z" fill="#140f0f" stroke="#140f0f"></path><path d="M898 309L816 284L816 356Z" fill="#130e0e" stroke="#130e0e"></path><path d="M818 227L845 163L775 169Z" fill="#0f0b0b" stroke="#0f0b0b"></path><path d="M845 163L817 111L775 169Z" fill="#100c0c" stroke="#100c0c"></path><path d="M753 57L767 0L693 0Z" fill="#161111" stroke="#161111"></path><path d="M766 540L819 540L764 479Z" fill="#100c0c" stroke="#100c0c"></path><path d="M900 407L825 415L840 466Z" fill="#0a0707" stroke="#0a0707"></path><path d="M900 407L889 352L825 415Z" fill="#161111" stroke="#161111"></path><path d="M122 101L123 177L185 183Z" fill="#130e0e" stroke="#130e0e"></path><path d="M74 472L118 475L122 420Z" fill="#161111" stroke="#161111"></path><path d="M889 352L898 309L816 356Z" fill="#130e0e" stroke="#130e0e"></path><path d="M66 357L134 305L50 302Z" fill="#0a0707" stroke="#0a0707"></path><path d="M122 420L118 475L177 421Z" fill="#0d0a0a" stroke="#0d0a0a"></path><path d="M898 309L897 246L816 284Z" fill="#161111" stroke="#161111"></path><path d="M899 120L839 78L817 111Z" fill="#130e0e" stroke="#130e0e"></path><path d="M905 474L900 407L840 466Z" fill="#0d0a0a" stroke="#0d0a0a"></path><path d="M960 356L960 312L898 309Z" fill="#100c0c" stroke="#100c0c"></path><path d="M960 170L886 171L897 246Z" fill="#0d0a0a" stroke="#0d0a0a"></path><path d="M261 44L176 42L199 102Z" fill="#0a0707" stroke="#0a0707"></path><path d="M199 102L122 101L185 183Z" fill="#151010" stroke="#151010"></path><path d="M328 0L239 0L261 44Z" fill="#0c0808" stroke="#0c0808"></path><path d="M897 246L886 171L818 227Z" fill="#0a0707" stroke="#0a0707"></path><path d="M817 111L839 78L753 57Z" fill="#0a0707" stroke="#0a0707"></path><path d="M118 475L129 540L188 540Z" fill="#0f0b0b" stroke="#0f0b0b"></path><path d="M899 120L817 111L845 163Z" fill="#0a0707" stroke="#0a0707"></path><path d="M818 0L767 0L753 57Z" fill="#0d0a0a" stroke="#0d0a0a"></path><path d="M239 0L176 42L261 44Z" fill="#161111" stroke="#161111"></path><path d="M60 253L134 305L124 235Z" fill="#130e0e" stroke="#130e0e"></path><path d="M118 475L63 540L129 540Z" fill="#110d0d" stroke="#110d0d"></path><path d="M176 42L143 75L199 102Z" fill="#0d0a0a" stroke="#0d0a0a"></path><path d="M65 181L60 253L124 235Z" fill="#110d0d" stroke="#110d0d"></path><path d="M143 75L122 101L199 102Z" fill="#0f0b0b" stroke="#0f0b0b"></path><path d="M891 540L905 474L840 466Z" fill="#100c0c" stroke="#100c0c"></path><path d="M960 356L898 309L889 352Z" fill="#0c0808" stroke="#0c0808"></path><path d="M65 181L124 235L123 177Z" fill="#151010" stroke="#151010"></path><path d="M54 428L74 472L122 420Z" fill="#100c0c" stroke="#100c0c"></path><path d="M60 253L50 302L134 305Z" fill="#140f0f" stroke="#140f0f"></path><path d="M66 357L54 428L122 420Z" fill="#130e0e" stroke="#130e0e"></path><path d="M62 49L46 104L122 101Z" fill="#0d0a0a" stroke="#0d0a0a"></path><path d="M176 42L139 0L143 75Z" fill="#0c0808" stroke="#0c0808"></path><path d="M239 0L191 0L176 42Z" fill="#0f0b0b" stroke="#0f0b0b"></path><path d="M819 540L891 540L840 466Z" fill="#110d0d" stroke="#110d0d"></path><path d="M0 407L54 428L66 357Z" fill="#0d0a0a" stroke="#0d0a0a"></path><path d="M0 309L0 343L50 302Z" fill="#140f0f" stroke="#140f0f"></path><path d="M122 101L65 181L123 177Z" fill="#110d0d" stroke="#110d0d"></path><path d="M46 104L65 181L122 101Z" fill="#100c0c" stroke="#100c0c"></path><path d="M886 171L899 120L845 163Z" fill="#0a0707" stroke="#0a0707"></path><path d="M839 78L818 0L753 57Z" fill="#080606" stroke="#080606"></path><path d="M960 170L899 120L886 171Z" fill="#151010" stroke="#151010"></path><path d="M960 246L897 246L898 309Z" fill="#0f0b0b" stroke="#0f0b0b"></path><path d="M882 41L818 0L839 78Z" fill="#0d0a0a" stroke="#0d0a0a"></path><path d="M960 356L900 407L960 408Z" fill="#080606" stroke="#080606"></path><path d="M960 356L889 352L900 407Z" fill="#0d0a0a" stroke="#0d0a0a"></path><path d="M960 408L900 407L960 466Z" fill="#140f0f" stroke="#140f0f"></path><path d="M960 312L960 246L898 309Z" fill="#161111" stroke="#161111"></path><path d="M960 466L900 407L905 474Z" fill="#0a0707" stroke="#0a0707"></path><path d="M74 472L63 540L118 475Z" fill="#080606" stroke="#080606"></path><path d="M0 487L63 540L74 472Z" fill="#100c0c" stroke="#100c0c"></path><path d="M960 66L882 41L899 120Z" fill="#100c0c" stroke="#100c0c"></path><path d="M899 120L882 41L839 78Z" fill="#140f0f" stroke="#140f0f"></path><path d="M191 0L139 0L176 42Z" fill="#0a0707" stroke="#0a0707"></path><path d="M960 540L960 466L905 474Z" fill="#100c0c" stroke="#100c0c"></path><path d="M960 246L960 170L897 246Z" fill="#0a0707" stroke="#0a0707"></path><path d="M50 302L0 343L66 357Z" fill="#0d0a0a" stroke="#0d0a0a"></path><path d="M54 428L0 487L74 472Z" fill="#151010" stroke="#151010"></path><path d="M0 309L50 302L0 245Z" fill="#100c0c" stroke="#100c0c"></path><path d="M0 245L60 253L0 198Z" fill="#151010" stroke="#151010"></path><path d="M0 245L50 302L60 253Z" fill="#100c0c" stroke="#100c0c"></path><path d="M62 49L122 101L143 75Z" fill="#110d0d" stroke="#110d0d"></path><path d="M0 343L0 407L66 357Z" fill="#0a0707" stroke="#0a0707"></path><path d="M0 198L60 253L65 181Z" fill="#100c0c" stroke="#100c0c"></path><path d="M960 170L960 119L899 120Z" fill="#0f0b0b" stroke="#0f0b0b"></path><path d="M960 0L886 0L882 41Z" fill="#140f0f" stroke="#140f0f"></path><path d="M882 41L886 0L818 0Z" fill="#100c0c" stroke="#100c0c"></path><path d="M0 125L0 198L65 181Z" fill="#0c0808" stroke="#0c0808"></path><path d="M891 540L960 540L905 474Z" fill="#100c0c" stroke="#100c0c"></path><path d="M139 0L62 49L143 75Z" fill="#0c0808" stroke="#0c0808"></path><path d="M46 104L0 125L65 181Z" fill="#151010" stroke="#151010"></path><path d="M0 407L0 487L54 428Z" fill="#151010" stroke="#151010"></path><path d="M960 119L960 66L899 120Z" fill="#0f0b0b" stroke="#0f0b0b"></path><path d="M0 60L0 125L46 104Z" fill="#140f0f" stroke="#140f0f"></path><path d="M139 0L67 0L62 49Z" fill="#161111" stroke="#161111"></path><path d="M62 49L0 60L46 104Z" fill="#161111" stroke="#161111"></path><path d="M0 487L0 540L63 540Z" fill="#140f0f" stroke="#140f0f"></path><path d="M0 0L0 60L62 49Z" fill="#0f0b0b" stroke="#0f0b0b"></path><path d="M960 66L960 0L882 41Z" fill="#151010" stroke="#151010"></path><path d="M67 0L0 0L62 49Z" fill="#0a0707" stroke="#0a0707"></path></g></svg>